<svg width="219" height="65" viewBox="0 0 219 65" fill="none" xmlns="http://www.w3.org/2000/svg">
<g filter="url(#filter0_d_101_320)">
<path d="M25.0619 34.3585H31.4849C31.3195 35.1129 31.053 35.8213 30.6855 36.4837C30.3363 37.1461 29.886 37.735 29.3347 38.2502C28.7834 38.7654 28.1218 39.1702 27.3499 39.4646C26.5964 39.7406 25.7418 39.8786 24.7862 39.8786C23.4262 39.8786 22.1949 39.5566 21.0922 38.9126C19.9896 38.2686 19.1074 37.3761 18.4458 36.2353C17.8026 35.0945 17.481 33.7789 17.481 32.2884C17.481 30.7796 17.8026 29.4639 18.4458 28.3415C19.1074 27.2007 19.9896 26.3083 21.0922 25.6642C22.1949 25.0202 23.4262 24.6982 24.7862 24.6982C26.2564 24.6982 27.5337 24.9926 28.618 25.5814C29.7023 26.1519 30.5476 26.9523 31.1541 27.9827L32.8081 26.4647C32.2568 25.563 31.5768 24.8086 30.7682 24.2014C29.9779 23.5942 29.0774 23.1342 28.0666 22.8214C27.0742 22.5086 25.9807 22.3522 24.7862 22.3522C23.3895 22.3522 22.0938 22.6006 20.8993 23.0974C19.7047 23.5758 18.6664 24.2658 17.7842 25.1674C16.9021 26.0506 16.2129 27.0995 15.7167 28.3139C15.2389 29.5283 15 30.8532 15 32.2884C15 33.7236 15.2389 35.0485 15.7167 36.2629C16.2129 37.4773 16.9021 38.5354 17.7842 39.437C18.6664 40.3202 19.7047 41.0102 20.8993 41.5071C22.0938 41.9855 23.3895 42.2247 24.7862 42.2247C26.2564 42.2247 27.5612 41.9579 28.7007 41.4243C29.8585 40.8722 30.8325 40.127 31.6227 39.1886C32.413 38.2502 33.0103 37.1829 33.4146 35.9869C33.8189 34.7725 34.021 33.4936 34.021 32.1504H25.0619V34.3585Z" fill="#7559F2"/>
<path d="M38.7733 41.9487H48.5043V39.7406H38.7733V41.9487ZM38.7733 24.8362H48.5043V22.6282H38.7733V24.8362ZM38.7733 32.5644H47.953V30.3564H38.7733V32.5644ZM37.4776 22.6282V41.9487H39.8208V22.6282H37.4776Z" fill="#7559F2"/>
<path d="M53.3507 36.0973L51.4762 37.3669C51.8988 38.2134 52.441 39.0138 53.1026 39.7682C53.7826 40.5042 54.5636 41.1022 55.4458 41.5623C56.3463 42.0039 57.3203 42.2247 58.3678 42.2247C59.1397 42.2247 59.8748 42.0959 60.5732 41.8383C61.2899 41.5807 61.9239 41.2126 62.4753 40.7342C63.045 40.2558 63.4861 39.6762 63.7985 38.9954C64.1293 38.3146 64.2947 37.551 64.2947 36.7045C64.2947 35.8213 64.1385 35.0669 63.826 34.4413C63.5136 33.7973 63.1093 33.2544 62.6131 32.8128C62.1353 32.3528 61.6115 31.9756 61.0418 31.6812C60.4721 31.3868 59.93 31.1476 59.4154 30.9636C58.2943 30.5772 57.403 30.1908 56.7414 29.8043C56.0982 29.3995 55.6387 28.9763 55.3631 28.5347C55.0874 28.0747 54.9496 27.5779 54.9496 27.0443C54.9496 26.4187 55.1885 25.8574 55.6663 25.3606C56.1441 24.8454 56.9068 24.5878 57.9543 24.5878C58.7078 24.5878 59.3419 24.735 59.8564 25.0294C60.3894 25.3238 60.8396 25.701 61.2072 26.1611C61.5748 26.6211 61.878 27.0903 62.1169 27.5687L64.1293 26.4095C63.8169 25.7286 63.385 25.0846 62.8336 24.4774C62.2823 23.8518 61.6115 23.3458 60.8213 22.9594C60.0494 22.5546 59.1397 22.3522 58.0922 22.3522C57.0079 22.3522 56.043 22.573 55.1977 23.0146C54.3523 23.4378 53.6907 24.0266 53.2129 24.781C52.735 25.5354 52.4961 26.3911 52.4961 27.3479C52.4961 28.2311 52.6615 28.9763 52.9923 29.5835C53.3415 30.1908 53.7826 30.706 54.3155 31.1292C54.8485 31.534 55.409 31.8744 55.9971 32.1504C56.5852 32.408 57.1181 32.6196 57.596 32.7852C58.3311 33.0428 59.0202 33.3372 59.6635 33.6684C60.3251 33.9813 60.858 34.3953 61.2623 34.9105C61.6667 35.4257 61.8688 36.1157 61.8688 36.9805C61.8688 37.8638 61.5564 38.5906 60.9315 39.161C60.3067 39.7314 59.4797 40.0166 58.4505 40.0166C57.6787 40.0166 56.9895 39.851 56.383 39.5198C55.7766 39.1886 55.2252 38.7286 54.729 38.1398C54.2512 37.5509 53.7918 36.8701 53.3507 36.0973Z" fill="#7559F2"/>
<path d="M65.8068 24.8362H70.7688V41.9487H73.1119V24.8362H78.0739V22.6282H65.8068V24.8362Z" fill="#7559F2"/>
<path d="M80.556 32.2884C80.556 30.8348 80.8684 29.5375 81.4933 28.3967C82.1365 27.2559 83.0095 26.3543 84.1121 25.6918C85.2148 25.0294 86.4645 24.6982 87.8612 24.6982C89.2763 24.6982 90.526 25.0294 91.6103 25.6918C92.713 26.3543 93.5767 27.2559 94.2016 28.3967C94.8448 29.5375 95.1664 30.8348 95.1664 32.2884C95.1664 33.7421 94.8448 35.0393 94.2016 36.1801C93.5767 37.3209 92.713 38.2226 91.6103 38.885C90.526 39.5474 89.2763 39.8786 87.8612 39.8786C86.4645 39.8786 85.2148 39.5474 84.1121 38.885C83.0095 38.2226 82.1365 37.3209 81.4933 36.1801C80.8684 35.0393 80.556 33.7421 80.556 32.2884ZM78.075 32.2884C78.075 33.6868 78.3139 34.9933 78.7918 36.2077C79.288 37.4221 79.9771 38.4802 80.8593 39.3818C81.7414 40.265 82.7797 40.9642 83.9743 41.4795C85.1689 41.9763 86.4645 42.2247 87.8612 42.2247C89.2763 42.2247 90.5719 41.9763 91.7481 41.4795C92.9427 40.9642 93.981 40.265 94.8632 39.3818C95.7453 38.4802 96.4253 37.4221 96.9031 36.2077C97.3993 34.9933 97.6474 33.6868 97.6474 32.2884C97.6474 30.8716 97.3993 29.5651 96.9031 28.3691C96.4253 27.1547 95.7453 26.1059 94.8632 25.2226C93.981 24.321 92.9427 23.6218 91.7481 23.125C90.5719 22.6098 89.2763 22.3522 87.8612 22.3522C86.4645 22.3522 85.1689 22.6098 83.9743 23.125C82.7797 23.6218 81.7414 24.321 80.8593 25.2226C79.9771 26.1059 79.288 27.1547 78.7918 28.3691C78.3139 29.5651 78.075 30.8716 78.075 32.2884Z" fill="#7559F2"/>
<path d="M104.402 32.4264L111.018 41.9487H113.913L107.021 32.4264H104.402ZM100.956 22.6282V41.9487H103.3V22.6282H100.956ZM102.252 24.6982H106.194C107.021 24.6982 107.747 24.8454 108.372 25.1398C109.015 25.4342 109.511 25.8574 109.861 26.4095C110.228 26.9615 110.412 27.6331 110.412 28.4243C110.412 29.2155 110.228 29.8871 109.861 30.4392C109.511 30.9912 109.015 31.4144 108.372 31.7088C107.747 32.0032 107.021 32.1504 106.194 32.1504H102.252V34.2205H106.194C107.444 34.2205 108.556 33.9905 109.53 33.5304C110.522 33.052 111.303 32.3804 111.873 31.5156C112.461 30.6324 112.755 29.6019 112.755 28.4243C112.755 27.2283 112.461 26.1979 111.873 25.333C111.303 24.4682 110.522 23.8058 109.53 23.3458C108.556 22.8674 107.444 22.6282 106.194 22.6282H102.252V24.6982Z" fill="#7559F2"/>
<path d="M117.275 49.6575C116.963 49.423 116.807 49.1103 116.807 48.7976C116.807 48.485 116.963 48.1723 117.197 47.9378L131.328 32.5391L117.197 17.0622C116.729 16.5932 116.729 15.8115 117.275 15.3425C117.744 14.8735 118.524 14.8735 118.993 15.4207L133.982 31.6793C134.451 32.1483 134.451 32.8517 133.982 33.3207L118.993 49.5793C118.524 50.1265 117.744 50.1265 117.275 49.6575Z" fill="#7559F2"/>
<path d="M147.265 32.2884C147.265 31.3316 147.44 30.5036 147.789 29.8043C148.138 29.0867 148.634 28.5347 149.277 28.1483C149.921 27.7435 150.693 27.5411 151.593 27.5411C152.549 27.5411 153.339 27.7435 153.964 28.1483C154.607 28.5347 155.094 29.0867 155.425 29.8043C155.756 30.5036 155.921 31.3316 155.921 32.2884C155.921 33.2268 155.746 34.0549 155.397 34.7725C155.048 35.4901 154.552 36.0513 153.909 36.4561C153.265 36.8425 152.494 37.0357 151.593 37.0357C150.693 37.0357 149.921 36.8425 149.277 36.4561C148.634 36.0513 148.138 35.4901 147.789 34.7725C147.44 34.0549 147.265 33.2268 147.265 32.2884ZM140.842 32.2884C140.842 33.8341 141.099 35.2509 141.614 36.5389C142.147 37.8086 142.891 38.9126 143.847 39.851C144.802 40.7894 145.933 41.5071 147.238 42.0039C148.561 42.5191 150.013 42.7767 151.593 42.7767C153.174 42.7767 154.616 42.5191 155.921 42.0039C157.244 41.5071 158.384 40.7894 159.339 39.851C160.295 38.9126 161.03 37.8086 161.545 36.5389C162.078 35.2509 162.344 33.8341 162.344 32.2884C162.344 30.7428 162.078 29.3443 161.545 28.0931C161.012 26.8419 160.258 25.7654 159.284 24.8638C158.31 23.9622 157.171 23.2722 155.866 22.7938C154.561 22.3154 153.137 22.0761 151.593 22.0761C150.086 22.0761 148.68 22.3154 147.375 22.7938C146.071 23.2722 144.931 23.9622 143.957 24.8638C142.983 25.7654 142.22 26.8419 141.669 28.0931C141.118 29.3443 140.842 30.7428 140.842 32.2884Z" fill="#7559F2"/>
<path d="M165.096 22.6282V41.9487H171.437V22.6282H165.096ZM177.364 22.6282L169.7 31.8744L177.501 41.9487H184.834L176.895 31.6812L184.421 22.6282H177.364Z" fill="#7559F2"/>
<path d="M192.284 33.6684L196.971 41.9487H204L198.487 33.6684H192.284ZM186.633 22.6282V41.9487H192.698V22.6282H186.633ZM190.547 27.7343H194.214C194.728 27.7343 195.151 27.8079 195.482 27.9551C195.813 28.0839 196.061 28.2863 196.226 28.5623C196.41 28.8199 196.502 29.1419 196.502 29.5283C196.502 29.8963 196.41 30.2184 196.226 30.4944C196.061 30.7704 195.813 30.982 195.482 31.1292C195.151 31.258 194.728 31.3224 194.214 31.3224H190.547V35.8765H194.765C196.658 35.8765 198.193 35.5913 199.369 35.0209C200.563 34.4505 201.436 33.6684 201.988 32.6748C202.557 31.6628 202.842 30.522 202.842 29.2523C202.842 27.9643 202.557 26.8235 201.988 25.8298C201.436 24.8362 200.563 24.0542 199.369 23.4838C198.193 22.9134 196.658 22.6282 194.765 22.6282H190.547V27.7343Z" fill="#7559F2"/>
</g>
<defs>
<filter id="filter0_d_101_320" x="0" y="0" width="219" height="65" filterUnits="userSpaceOnUse" color-interpolation-filters="sRGB">
<feFlood flood-opacity="0" result="BackgroundImageFix"/>
<feColorMatrix in="SourceAlpha" type="matrix" values="0 0 0 0 0 0 0 0 0 0 0 0 0 0 0 0 0 0 127 0" result="hardAlpha"/>
<feOffset/>
<feGaussianBlur stdDeviation="7.5"/>
<feComposite in2="hardAlpha" operator="out"/>
<feColorMatrix type="matrix" values="0 0 0 0 0.458824 0 0 0 0 0.34902 0 0 0 0 0.94902 0 0 0 1 0"/>
<feBlend mode="normal" in2="BackgroundImageFix" result="effect1_dropShadow_101_320"/>
<feBlend mode="normal" in="SourceGraphic" in2="effect1_dropShadow_101_320" result="shape"/>
</filter>
</defs>
</svg>

